<svg width="24" height="24" viewBox="0 0 24 24"  xmlns="http://www.w3.org/2000/svg">
<path  fill-rule="evenodd" clip-rule="evenodd" d="M11.4244 1.25998C11.763 0.996673 12.237 0.996673 12.5756 1.25998L21.5756 8.25998C21.8039 8.4376 21.9375 8.7107 21.9375 9V20C21.9375 20.7791 21.628 21.5262 21.0771 22.0771C20.5262 22.628 19.7791 22.9375 19 22.9375H5C4.22093 22.9375 3.47376 22.628 2.92287 22.0771C2.37199 21.5262 2.0625 20.7791 2.0625 20V9C2.0625 8.7107 2.19607 8.4376 2.42443 8.25998L11.4244 1.25998ZM3.9375 9.45852V20C3.9375 20.2818 4.04944 20.552 4.2487 20.7513C4.44796 20.9506 4.71821 21.0625 5 21.0625H19C19.2818 21.0625 19.552 20.9506 19.7513 20.7513C19.9506 20.552 20.0625 20.2818 20.0625 20V9.45852L12 3.18768L3.9375 9.45852Z" />
<path  fill-rule="evenodd" clip-rule="evenodd" d="M8.0625 12C8.0625 11.4822 8.48223 11.0625 9 11.0625H15C15.5178 11.0625 15.9375 11.4822 15.9375 12V22C15.9375 22.5178 15.5178 22.9375 15 22.9375C14.4822 22.9375 14.0625 22.5178 14.0625 22V12.9375H9.9375V22C9.9375 22.5178 9.51777 22.9375 9 22.9375C8.48223 22.9375 8.0625 22.5178 8.0625 22V12Z"/>
</svg>
