<svg width="24" height="24" viewBox="0 0 24 24" xmlns="http://www.w3.org/2000/svg">
<g opacity="0.9">
<path fill-rule="evenodd" clip-rule="evenodd"  d="M19.5927 12.6839H18.7994C18.7969 12.6839 18.7943 12.6839 18.7917 12.6839C18.6257 12.6843 18.4605 12.7087 18.3014 12.757C18.289 12.76 18.277 12.7635 18.265 12.7677C18.0716 12.8349 17.8919 12.9363 17.7349 13.0677C17.814 12.2278 18.2299 11.0083 19.8079 10.0764C19.9761 9.97159 20.0296 9.75167 19.929 9.58138C19.828 9.41066 19.6098 9.35161 19.437 9.44788C18.4567 9.98058 17.6921 10.8372 17.2741 11.8713C17.2548 11.808 17.2338 11.7464 17.2112 11.6886C17.0285 11.2077 16.7268 10.7807 16.3349 10.4474V4.28648C16.3349 3.68147 15.8445 3.19113 15.2395 3.19113H13.712C13.5576 2.75513 13.1464 2.46289 12.6839 2.46075H10.7281C10.4209 1.58575 9.59464 1 8.66744 1C7.74025 1 6.91403 1.58575 6.60725 2.46075H4.65102C4.18849 2.46289 3.77688 2.7547 3.62285 3.19113H2.09535C1.49034 3.19113 1 3.68147 1 4.28648V21.8116C1 22.4166 1.49034 22.907 2.09535 22.907H15.2395C15.4056 22.907 15.5694 22.8685 15.7179 22.7945C16.0414 22.868 16.3764 22.907 16.72 22.907V22.9066C16.7294 22.9066 16.7384 22.907 16.7478 22.907H18.1127C20.7561 22.907 22.907 20.6145 22.907 17.7952V16.2142C22.9066 14.2683 21.4201 12.6839 19.5927 12.6839ZM16.512 11.9514V11.9496C16.607 12.2363 16.6755 12.5307 16.7161 12.8298C16.6798 12.8139 16.6472 12.793 16.6104 12.781C16.4307 12.7164 16.2412 12.6834 16.0504 12.6834C16.0478 12.6834 16.0456 12.6834 16.0435 12.6834C16.0427 12.6834 16.0418 12.6834 16.0405 12.6834C16.0379 12.6834 16.0354 12.6834 16.0328 12.6834H15.2395C15.2301 12.6834 15.2207 12.6843 15.2113 12.6843C15.1929 12.6847 15.1745 12.6851 15.1561 12.6856C15.0872 12.6873 15.0183 12.6911 14.9507 12.6976C14.9439 12.6946 14.9379 12.6907 14.9298 12.6894C13.7215 12.4473 13.7381 11.0378 13.7839 10.533C14.0171 10.506 14.2512 10.4932 14.4856 10.494H14.4933C15.4073 10.5026 16.2164 11.0866 16.512 11.9514ZM4.27022 3.5561C4.27022 3.35457 4.43366 3.1907 4.63519 3.1907H6.86226C6.87467 3.18899 6.88665 3.18642 6.89863 3.183C6.92173 3.18086 6.94398 3.17615 6.9658 3.1693C6.98891 3.16246 7.01158 3.15305 7.03255 3.14149C7.09331 3.10897 7.14294 3.05891 7.17546 2.99858C7.18744 2.97719 7.19685 2.95494 7.2037 2.93184C7.20926 2.92071 7.21397 2.90959 7.21825 2.89803C7.3573 2.21815 7.95547 1.72995 8.64905 1.72995C9.34305 1.72995 9.94079 2.21815 10.0798 2.89803C10.0841 2.9113 10.0893 2.92413 10.0952 2.93697C10.1008 2.95451 10.1077 2.97206 10.1158 2.98917C10.1282 3.0127 10.1432 3.03495 10.1603 3.05506C10.171 3.06875 10.1821 3.08159 10.1945 3.094C10.2163 3.11283 10.2399 3.12866 10.2655 3.14192C10.3169 3.17701 10.3781 3.19412 10.4401 3.19113H12.6672C12.8687 3.19113 13.0326 3.35457 13.0326 3.55653V5.01685C13.0326 5.21838 12.8691 5.38182 12.6672 5.38182H4.63519C4.43366 5.38182 4.27022 5.21838 4.27022 5.01685V3.5561ZM2.07952 22.1766C1.87799 22.1766 1.71412 22.0132 1.71412 21.8112V4.28648C1.71412 4.08495 1.87756 3.92107 2.07952 3.92107H3.53984V5.19185C3.53984 5.19185 3.5407 5.28812 3.56765 5.33947C3.72169 5.77547 4.17266 6.11006 4.63519 6.11177H12.6676C13.1301 6.11006 13.4964 5.85933 13.6958 5.3814C13.7518 5.2924 13.763 5.03953 13.763 5.03953V3.92107H15.2233C15.4248 3.92107 15.5883 4.08452 15.5883 4.28648V9.99983C15.5883 9.99983 14.8262 9.79617 14.1279 9.76836C13.1849 9.80216 13.1224 10.0644 13.0891 10.2146C12.9607 10.9638 13.0257 12.2885 13.8883 12.9919C12.7331 13.5443 11.9257 14.7809 11.9257 16.2142V17.7952C11.9257 19.653 12.8597 21.2815 14.2533 22.1766H2.07952ZM22.1603 17.7952C22.1603 20.211 20.3368 22.1766 18.0964 22.1766H16.7358C14.495 22.1766 12.6719 20.211 12.6719 17.7952V16.2142C12.6719 14.6709 13.831 13.4138 15.2562 13.4134H16.0469C16.0533 13.4138 16.0568 13.4142 16.0568 13.4142C16.1612 13.4151 16.2647 13.4339 16.3631 13.469C16.7876 13.6389 17.0614 14.0556 17.049 14.5126V14.8746C17.049 15.0761 17.2125 15.24 17.414 15.24C17.6155 15.24 17.779 15.0765 17.779 14.8746V14.5117C17.7653 14.0552 18.037 13.638 18.4605 13.4664L18.4781 13.4613C18.5727 13.4309 18.6711 13.4147 18.7699 13.4134H19.576C21.0008 13.4142 22.1603 14.6709 22.1603 16.2142V17.7952Z" stroke-miterlimit="10"/>
<path fill-rule="evenodd" clip-rule="evenodd"  d="M4.96013 9.03289L11.0336 9.03286C11.2351 9.03286 11.399 8.86942 11.399 8.66746C11.399 8.46594 11.2356 8.30249 11.0336 8.30249L4.96013 8.30252C4.7586 8.30252 4.59473 8.46596 4.59473 8.66749C4.59473 8.86944 4.75817 9.03289 4.96013 9.03289Z"   stroke-miterlimit="10"/>
<path  fill-rule="evenodd" clip-rule="evenodd" d="M10.1137 11.5884H4.96013C4.7586 11.5884 4.59473 11.7518 4.59473 11.9538C4.59473 12.1553 4.75817 12.3188 4.96013 12.3188H10.1137C10.3152 12.3188 10.4791 12.1553 10.4791 11.9538C10.4787 11.7518 10.3152 11.5884 10.1137 11.5884Z"   stroke-miterlimit="10"/>
<path fill-rule="evenodd" clip-rule="evenodd"  d="M9.19376 14.8745L4.95964 14.8745C4.75811 14.8745 4.59424 15.038 4.59424 15.2399C4.59424 15.4414 4.75769 15.6049 4.95964 15.6049L9.19376 15.6049C9.39529 15.6049 9.55916 15.4414 9.55916 15.2399C9.55916 15.038 9.39571 14.8745 9.19376 14.8745Z"  stroke-miterlimit="10"/>
<path fill-rule="evenodd" clip-rule="evenodd"  d="M9.74826 18.1606H4.95964C4.75811 18.1606 4.59424 18.3241 4.59424 18.526C4.59424 18.7276 4.75769 18.891 4.95964 18.891H9.74826C9.94979 18.891 10.1137 18.7276 10.1137 18.526C10.1137 18.3241 9.95022 18.1606 9.74826 18.1606Z"   stroke-miterlimit="10"/>
</g>
</svg>
