<svg width="24" height="24" viewBox="0 0 24 24" xmlns="http://www.w3.org/2000/svg">
<g opacity="0.5">
<path fill-rule="evenodd" clip-rule="evenodd" d="M8.8002 11.2001C7.73933 11.2001 6.72191 10.7787 5.97177 10.0285C5.22162 9.27838 4.8002 8.26096 4.8002 7.2001V4.0001C4.8002 3.78792 4.88448 3.58444 5.03451 3.43441C5.18454 3.28438 5.38802 3.2001 5.6002 3.2001H6.4002C6.61237 3.2001 6.81585 3.11581 6.96588 2.96578C7.11591 2.81575 7.2002 2.61227 7.2002 2.4001C7.2002 2.18792 7.11591 1.98444 6.96588 1.83441C6.81585 1.68438 6.61237 1.6001 6.4002 1.6001H5.6002C4.96368 1.6001 4.35323 1.85295 3.90314 2.30304C3.45305 2.75313 3.2002 3.36358 3.2002 4.0001V7.2001C3.20122 8.10389 3.42161 8.99392 3.84244 9.79376C4.26326 10.5936 4.87194 11.2793 5.6162 11.7921C6.33126 12.4225 6.91116 13.1913 7.3209 14.052C7.73064 14.9128 7.96172 15.8476 8.0002 16.8001C8.0002 18.2853 8.59019 19.7097 9.6404 20.7599C10.6906 21.8101 12.115 22.4001 13.6002 22.4001C15.0854 22.4001 16.5098 21.8101 17.56 20.7599C18.6102 19.7097 19.2002 18.2853 19.2002 16.8001V15.8881C19.9543 15.6934 20.6115 15.2303 21.0487 14.5857C21.4858 13.9411 21.6728 13.1591 21.5747 12.3865C21.4766 11.6138 21.1 10.9035 20.5156 10.3886C19.9312 9.87377 19.1791 9.58971 18.4002 9.58971C17.6213 9.58971 16.8692 9.87377 16.2848 10.3886C15.7004 10.9035 15.3238 11.6138 15.2257 12.3865C15.1276 13.1591 15.3146 13.9411 15.7517 14.5857C16.1888 15.2303 16.8461 15.6934 17.6002 15.8881V16.8001C17.6002 17.861 17.1788 18.8784 16.4286 19.6285C15.6785 20.3787 14.6611 20.8001 13.6002 20.8001C12.5393 20.8001 11.5219 20.3787 10.7718 19.6285C10.0216 18.8784 9.6002 17.861 9.6002 16.8001C9.64069 15.8464 9.87427 14.9109 10.2868 14.0501C10.6993 13.1893 11.2822 12.4211 12.0002 11.7921C12.7415 11.2776 13.3471 10.591 13.765 9.79131C14.183 8.99158 14.401 8.10247 14.4002 7.2001V4.0001C14.4002 3.36358 14.1473 2.75313 13.6973 2.30304C13.2472 1.85295 12.6367 1.6001 12.0002 1.6001H11.2002C10.988 1.6001 10.7845 1.68438 10.6345 1.83441C10.4845 1.98444 10.4002 2.18792 10.4002 2.4001C10.4002 2.61227 10.4845 2.81575 10.6345 2.96578C10.7845 3.11581 10.988 3.2001 11.2002 3.2001H12.0002C12.2124 3.2001 12.4159 3.28438 12.5659 3.43441C12.7159 3.58444 12.8002 3.78792 12.8002 4.0001V7.2001C12.8002 7.72538 12.6967 8.24553 12.4957 8.73083C12.2947 9.21613 12.0001 9.65709 11.6286 10.0285C11.2572 10.4 10.8162 10.6946 10.3309 10.8956C9.84563 11.0966 9.32548 11.2001 8.8002 11.2001ZM18.4002 14.4001C17.9758 14.4001 17.5689 14.2315 17.2688 13.9315C16.9688 13.6314 16.8002 13.2244 16.8002 12.8001C16.8002 12.3758 16.9688 11.9688 17.2688 11.6687C17.5689 11.3687 17.9758 11.2001 18.4002 11.2001C18.8245 11.2001 19.2315 11.3687 19.5316 11.6687C19.8316 11.9688 20.0002 12.3758 20.0002 12.8001C20.0002 13.2244 19.8316 13.6314 19.5316 13.9315C19.2315 14.2315 18.8245 14.4001 18.4002 14.4001Z" />
</g>
</svg>
